<?xml version="1.0" encoding="utf-8"?>
<!-- Generator: Adobe Illustrator 24.1.1, SVG Export Plug-In . SVG Version: 6.00 Build 0)  -->
<svg version="1.1" id="Lag_1" xmlns="http://www.w3.org/2000/svg" xmlns:xlink="http://www.w3.org/1999/xlink" x="0px" y="0px"
	 viewBox="0 0 666 114" style="enable-background:new 0 0 666 114;" xml:space="preserve">
<style type="text/css">
	.st0{fill:#00FFFF;}
</style>
<g>
	<path d="M72.95,75.71c1.88,0,3.56-0.31,5.04-0.93c1.48-0.62,2.73-1.51,3.75-2.67c1.02-1.16,1.8-2.58,2.34-4.25
		c0.54-1.67,0.81-3.57,0.81-5.7V26.36h14.02v35.79c0,3.71-0.6,7.11-1.8,10.2c-1.2,3.1-2.92,5.76-5.16,8
		c-2.24,2.24-4.96,3.98-8.17,5.22c-3.21,1.24-6.81,1.87-10.82,1.87c-4.04,0-7.66-0.62-10.86-1.87c-3.21-1.24-5.93-2.98-8.17-5.22
		c-2.24-2.24-3.95-4.91-5.14-8c-1.19-3.1-1.78-6.5-1.78-10.2V26.36h14.02v35.74c0,2.13,0.27,4.03,0.81,5.7
		c0.54,1.67,1.32,3.1,2.34,4.27c1.02,1.17,2.27,2.07,3.75,2.7C69.39,75.4,71.07,75.71,72.95,75.71z"/>
	<path d="M162.85,56.55c0,4.37-0.75,8.4-2.26,12.09c-1.51,3.69-3.63,6.88-6.36,9.58s-6.03,4.8-9.89,6.3
		c-3.86,1.51-8.13,2.26-12.83,2.26h-23.47V26.36h23.47c4.7,0,8.98,0.76,12.83,2.28s7.15,3.62,9.89,6.3s4.86,5.87,6.36,9.56
		C162.09,48.2,162.85,52.21,162.85,56.55z M148.5,56.55c0-2.99-0.39-5.68-1.16-8.09c-0.77-2.4-1.89-4.44-3.34-6.12
		c-1.45-1.67-3.23-2.96-5.33-3.86c-2.1-0.9-4.49-1.35-7.17-1.35h-9.37V76h9.37c2.68,0,5.07-0.45,7.17-1.35
		c2.1-0.9,3.88-2.18,5.33-3.86c1.45-1.67,2.56-3.71,3.34-6.12C148.11,62.27,148.5,59.56,148.5,56.55z"/>
	<path d="M162.1,26.36h11.28c1.22,0,2.21,0.28,2.99,0.83c0.77,0.55,1.33,1.29,1.66,2.2l11.69,32.34c0.52,1.41,1.06,2.94,1.6,4.6
		c0.54,1.66,1.04,3.4,1.51,5.23c0.39-1.83,0.84-3.57,1.35-5.23c0.51-1.66,1.02-3.19,1.51-4.6l11.61-32.34
		c0.28-0.77,0.82-1.47,1.62-2.09c0.8-0.62,1.78-0.93,2.94-0.93h11.36l-24.22,60.42h-12.69L162.1,26.36z"/>
	<path d="M243.54,86.78h-14.1V26.36h14.1V86.78z"/>
	<path d="M268.75,50.83h2.24c2.07,0,3.57-0.65,4.48-1.95l13.6-19.74c0.75-1.08,1.6-1.81,2.55-2.2c0.95-0.39,2.12-0.58,3.5-0.58
		h12.19L289.4,50.79c-0.64,0.88-1.3,1.62-1.99,2.2c-0.69,0.58-1.4,1.06-2.12,1.45c1.05,0.39,2.01,0.92,2.88,1.6
		c0.87,0.68,1.67,1.58,2.38,2.72l18.24,28.03h-12.52c-0.8,0-1.49-0.05-2.05-0.17c-0.57-0.11-1.06-0.28-1.47-0.5
		c-0.42-0.22-0.77-0.49-1.08-0.81c-0.3-0.32-0.59-0.68-0.87-1.1l-13.68-21.02c-0.5-0.77-1.13-1.32-1.89-1.64
		c-0.76-0.32-1.79-0.48-3.09-0.48h-3.4v25.71h-14.02V26.36h14.02V50.83z"/>
	<path d="M327.96,75.58h22.39v11.2h-36.41V26.36h14.02V75.58z"/>
	<path d="M395.88,26.36v10.78h-24.8v14.1h18.99v10.37h-18.99V76h24.8v10.78h-38.9V26.36H395.88z"/>
	<path d="M417.86,64.43v22.35h-14.02V26.36h19.66c4.37,0,8.09,0.45,11.17,1.35c3.08,0.9,5.6,2.15,7.55,3.75
		c1.95,1.6,3.37,3.5,4.25,5.68s1.33,4.56,1.33,7.13c0,1.96-0.26,3.81-0.79,5.56s-1.31,3.35-2.34,4.83c-1.04,1.48-2.31,2.8-3.81,3.96
		c-1.51,1.16-3.24,2.11-5.2,2.86c0.94,0.47,1.82,1.05,2.63,1.74c0.82,0.69,1.53,1.53,2.14,2.53l12.85,21.02h-12.69
		c-2.35,0-4.04-0.88-5.06-2.65l-10.04-17.54c-0.44-0.77-0.96-1.33-1.55-1.66c-0.59-0.33-1.43-0.5-2.51-0.5H417.86z M417.86,54.77
		h5.64c1.91,0,3.53-0.24,4.87-0.73s2.44-1.15,3.3-2.01c0.86-0.86,1.48-1.86,1.87-3.01c0.39-1.15,0.58-2.38,0.58-3.71
		c0-2.65-0.86-4.73-2.59-6.22c-1.73-1.49-4.4-2.24-8.02-2.24h-5.64V54.77z"/>
	<path d="M619.65,73.42v13.36H607.3V73.42H619.65z"/>
	<g>
		<path d="M525.65,43.43c-0.48-1.42-0.96-2.96-1.43-4.62c-0.44,1.69-0.9,3.25-1.37,4.69c-0.47,1.44-0.91,2.68-1.33,3.73l-5.56,16.46
			h16.5l-5.56-16.54C526.55,46.09,526.13,44.85,525.65,43.43z"/>
		<path d="M587.35,39.09c-1.73-1.49-4.4-2.24-8.02-2.24h-5.64v17.91h5.64c1.91,0,3.53-0.24,4.87-0.73s2.44-1.15,3.3-2.01
			c0.86-0.86,1.48-1.86,1.87-3.01c0.39-1.15,0.58-2.38,0.58-3.71C589.94,42.66,589.08,40.59,587.35,39.09z"/>
		<g>
			<path d="M507.55,85.85c-0.35,0.27-0.74,0.48-1.16,0.63H542c-0.4-0.14-0.77-0.31-1.1-0.54c-0.79-0.57-1.33-1.29-1.64-2.18
				l-3.57-10.53h-22.97l-3.57,10.53C508.89,84.53,508.35,85.22,507.55,85.85z"/>
			<polygon points="473.09,63.27 473.09,86.47 493.78,86.47 517,26.47 497.89,26.47 497.89,37.14 473.09,37.14 473.09,52.45 
				493.74,52.45 493.74,63.27 			"/>
			<path d="M591.35,84.12l-10.04-17.54c-0.44-0.77-0.96-1.33-1.55-1.66c-0.59-0.33-1.43-0.5-2.51-0.5h-3.57v22.04h20.6
				C593.02,86.08,592.03,85.3,591.35,84.12z"/>
			<polygon points="554.66,86.47 559.67,86.47 559.67,26.47 531.43,26.47 			"/>
		</g>
	</g>
</g>
</svg>
